<svg xmlns="http://www.w3.org/2000/svg" class="logo" width="178" height="49" viewBox="0 0 556 93"
fill="none">
<path fill-rule="evenodd" clip-rule="evenodd"
d="M59.1115 0.131691C58.3701 0.0713955 56.9007 0.0177996 55.5055 0.00440059C54.2114 -0.0022989 52.9645 -0.0022989 52.742 0.0111001C52.5196 0.0244991 51.6434 0.078095 50.7874 0.13839C49.9314 0.198686 49.0214 0.27908 48.7653 0.312577C48.5092 0.352774 47.943 0.426469 47.5184 0.473365C47.0938 0.526961 46.4399 0.614054 46.0692 0.67435C45.6985 0.727946 45.2604 0.80834 45.0919 0.848537C44.9234 0.888734 44.546 0.962428 44.2494 1.01602C43.9528 1.06292 43.5417 1.13661 43.3395 1.17681C43.1373 1.21701 42.7733 1.3108 42.5306 1.3845C42.288 1.45149 42.0184 1.51179 41.924 1.51179C41.8297 1.51179 41.56 1.56538 41.3174 1.63908C41.1507 1.6897 40.8981 1.76246 40.6667 1.82912C40.5613 1.85949 40.4603 1.88859 40.3738 1.91376C40.0974 1.98745 39.7132 2.09464 39.5312 2.14824C39.3425 2.19513 39.0392 2.28893 38.8572 2.34922C38.6685 2.40952 38.3854 2.49661 38.2169 2.54351C38.1738 2.55723 38.1258 2.57227 38.0761 2.58784C37.9317 2.63308 37.773 2.6828 37.6777 2.71769C37.5496 2.76459 37.28 2.85838 37.0778 2.92538C36.8756 2.99907 36.6869 3.05267 36.6599 3.05267C36.6262 3.05267 36.4982 3.09957 36.3768 3.15316C36.2623 3.20676 36.0263 3.29385 35.8578 3.35415C35.7772 3.38301 35.6765 3.41801 35.5771 3.45253C35.4689 3.49014 35.3622 3.52719 35.2849 3.55513C35.1366 3.60203 34.921 3.68912 34.8131 3.74942C34.7053 3.80971 34.5705 3.85661 34.5233 3.85661C34.4828 3.85661 34.3615 3.89681 34.2537 3.9504C34.1526 4.004 33.7347 4.18488 33.3303 4.35907C33.2705 4.38482 33.2082 4.41159 33.1447 4.43887C32.7789 4.59613 32.374 4.77019 32.1844 4.86153C31.962 4.96203 31.2206 5.3171 30.5331 5.65877C29.8456 5.99375 29.0772 6.38902 28.8143 6.53641C28.6391 6.63019 28.407 6.75672 28.2058 6.86638C28.1052 6.92123 28.0123 6.97186 27.9381 7.01207C27.7157 7.12596 27.4865 7.25325 27.4326 7.30015C27.3787 7.34704 27.2574 7.42074 27.163 7.46094C27.0686 7.50783 26.9136 7.59492 26.8125 7.66192C26.7181 7.72222 26.4418 7.8897 26.2059 8.03039C26.1361 8.07326 26.0575 8.1211 25.9776 8.16974C25.7952 8.28076 25.606 8.39598 25.4982 8.46586C25.3431 8.56635 25.1005 8.72714 24.9589 8.82093C24.8174 8.92142 24.568 9.08891 24.4062 9.1894C24.2445 9.2966 24.0625 9.41719 24.0018 9.45068C23.9531 9.48299 23.8521 9.54557 23.7584 9.60368C23.7355 9.61788 23.713 9.63181 23.6918 9.64497C23.5839 9.71866 23.4559 9.81246 23.4222 9.85265C23.3885 9.89285 23.1863 10.0335 22.9841 10.1742C22.7819 10.3082 22.4112 10.5695 22.1685 10.7437C21.9191 10.9179 21.6023 11.1524 21.4608 11.2729C21.3125 11.3935 20.9418 11.695 20.625 11.9429C20.3082 12.1908 20.0386 12.4119 20.0184 12.432C19.9982 12.4521 19.8027 12.6195 19.5803 12.8004C19.3578 12.9813 18.7782 13.4771 18.2996 13.9058C17.8211 14.3279 16.8909 15.1988 16.2371 15.8487C15.5833 16.4918 14.7475 17.3494 14.3701 17.7581C13.9994 18.1667 13.4804 18.7496 13.2108 19.0645L13.1685 19.1138C12.9023 19.4247 12.5463 19.8405 12.348 20.0694C12.1458 20.3106 11.8088 20.7259 11.5999 20.9939C11.3909 21.2686 11.1281 21.6103 11.0067 21.7644C10.9262 21.8667 10.8099 22.0252 10.7014 22.1731C10.6465 22.2479 10.5937 22.32 10.5484 22.3807C10.4603 22.5098 10.3084 22.7181 10.1607 22.9206C10.0938 23.0124 10.0276 23.1031 9.96875 23.1846C9.78676 23.4459 9.36887 24.0489 9.04534 24.5245C8.78751 24.9036 8.55108 25.2614 8.44523 25.4216C8.41825 25.4624 8.39976 25.4904 8.39154 25.5027C8.37096 25.5334 8.33639 25.5918 8.29586 25.6604C8.25677 25.7265 8.21213 25.8021 8.16912 25.8711C8.08823 26.0185 7.96017 26.2262 7.88603 26.3334C7.81189 26.4406 7.70404 26.6282 7.65012 26.7354C7.58946 26.8426 7.42096 27.1306 7.27267 27.3718C7.12439 27.613 6.95588 27.9011 6.90196 28.0083C6.87333 28.0589 6.81919 28.1602 6.75299 28.284C6.67891 28.4227 6.58972 28.5895 6.50429 28.7452C6.34252 29.04 5.93137 29.8372 5.59436 30.5206C5.40845 30.8976 5.22869 31.2643 5.09581 31.5355C4.98783 31.7558 4.91082 31.9129 4.88664 31.961C4.83946 32.0682 4.73836 32.296 4.65748 32.4634C4.6239 32.5393 4.58066 32.6398 4.53588 32.744C4.48176 32.8698 4.42539 33.0009 4.38113 33.0999C4.33129 33.2155 4.27121 33.3463 4.2214 33.4548C4.19037 33.5224 4.16333 33.5813 4.14522 33.6225C4.0913 33.7229 4.04412 33.8435 4.04412 33.8904C4.04412 33.9306 3.98346 34.0847 3.90931 34.2254C3.83517 34.3594 3.77451 34.5068 3.77451 34.5403C3.77451 34.5738 3.71385 34.7346 3.64645 34.8954C3.5723 35.0494 3.49142 35.2705 3.46446 35.3777C3.4375 35.4849 3.37684 35.639 3.32292 35.7127C3.27574 35.7864 3.23529 35.8936 3.23529 35.9472C3.23529 36.0008 3.17463 36.2085 3.10049 36.4027C3.02635 36.5903 2.90502 36.9119 2.83762 37.1062C2.77022 37.2938 2.64216 37.6823 2.56127 37.957C2.48039 38.2317 2.37255 38.5667 2.31863 38.694C2.27145 38.8213 2.21078 39.049 2.18382 39.1964C2.15686 39.3438 2.10968 39.5247 2.06924 39.5984C2.0288 39.6721 1.9614 39.8999 1.91422 40.1009C1.88132 40.241 1.83533 40.4299 1.79678 40.5883C1.78004 40.6571 1.7647 40.7201 1.75245 40.7708C1.71005 40.9213 1.635 41.2125 1.5713 41.4596L1.55025 41.5413C1.54206 41.573 1.53349 41.6062 1.52466 41.6403C1.46073 41.8877 1.38357 42.1863 1.34804 42.3452C1.3076 42.5328 1.22672 42.9213 1.17279 43.2161C1.12561 43.5109 1.05821 43.799 1.03799 43.8526C1.01103 43.9062 0.950368 44.1942 0.896446 44.489C0.849265 44.7838 0.761642 45.3399 0.70098 45.7284C0.647059 46.117 0.559436 46.6262 0.505515 46.8673C0.444853 47.1085 0.404412 47.4234 0.404412 47.5708C0.404412 47.7182 0.35723 48.2005 0.303309 48.6427C0.242647 49.0849 0.155025 50.1233 0.101103 50.954C0.0471814 51.7848 0 53.4261 0 54.6053C0 55.7844 0.0471814 57.4726 0.101103 58.357C0.155025 59.2413 0.249387 60.2797 0.303309 60.6683C0.35723 61.0569 0.404412 61.5057 0.404412 61.6732C0.404412 61.8407 0.444853 62.169 0.498775 62.4102C0.552696 62.6513 0.647059 63.1806 0.707721 63.5826C0.768382 63.9846 0.856005 64.5473 0.903186 64.822C0.950368 65.0967 1.01103 65.3713 1.03799 65.4249C1.05821 65.4785 1.12561 65.7666 1.17279 66.0614C1.22672 66.3562 1.3076 66.7514 1.34804 66.9323C1.38848 67.1199 1.48284 67.4817 1.55025 67.7363C1.57647 67.8353 1.60576 67.9486 1.63453 68.0598C1.67971 68.2346 1.72363 68.4044 1.75245 68.5067C1.7647 68.5574 1.78003 68.6204 1.79677 68.6892C1.83532 68.8475 1.88132 69.0365 1.91422 69.1767C1.9614 69.3776 2.0288 69.6054 2.06924 69.6791C2.10968 69.7528 2.15686 69.9337 2.18382 70.0811C2.21078 70.2285 2.27145 70.4563 2.31863 70.5835C2.37255 70.7108 2.48039 71.0458 2.56127 71.3205C2.64216 71.5952 2.77022 71.9837 2.83762 72.178C2.90502 72.3656 3.02635 72.6872 3.10049 72.8815C3.17463 73.0691 3.23529 73.2767 3.23529 73.3303C3.23529 73.3839 3.27574 73.4911 3.32292 73.5648C3.37684 73.6385 3.4375 73.7859 3.46446 73.8998C3.49142 74.0137 3.5723 74.2281 3.64645 74.3889C3.71385 74.543 3.77451 74.7037 3.77451 74.7372C3.77451 74.7707 3.83517 74.9181 3.90931 75.0588C3.98346 75.1928 4.04412 75.3536 4.04412 75.4072C4.04412 75.4608 4.08456 75.568 4.13848 75.6417C4.18566 75.7154 4.25306 75.8493 4.28002 75.9431C4.30699 76.0369 4.43505 76.3384 4.56311 76.6131C4.65736 76.8265 4.77602 77.0843 4.85588 77.2579C4.87882 77.3077 4.89856 77.3506 4.9136 77.3835C4.98101 77.5309 5.3652 78.3014 5.76287 79.0919C6.1538 79.8824 6.59865 80.7467 6.74694 81.0013L6.78062 81.0618C6.91417 81.3019 7.06121 81.5662 7.11091 81.6712C7.17157 81.7851 7.27267 81.9593 7.34681 82.0732C7.41422 82.1871 7.5962 82.4885 7.75123 82.7431C7.90625 82.9977 8.08823 83.2992 8.15564 83.4131C8.22978 83.527 8.3511 83.7213 8.42525 83.8485C8.49939 83.9758 8.66789 84.2371 8.8027 84.418C8.9375 84.6056 9.15319 84.887 9.28799 85.0545C9.41605 85.2219 9.92831 85.7445 10.4136 86.2269C10.8989 86.7092 11.519 87.2519 11.7886 87.4328C12.0515 87.6204 12.402 87.8481 12.557 87.9486C12.712 88.0491 12.9142 88.1697 13.0086 88.2233C13.1029 88.2769 13.3254 88.3975 13.5141 88.498C13.6961 88.5985 14.1072 88.7928 14.424 88.9201C14.7408 89.0473 15.1654 89.2148 15.3676 89.2818C15.5699 89.3555 15.9069 89.4627 16.1091 89.5163C16.3113 89.5766 16.7831 89.6771 17.1538 89.7508C17.5245 89.8178 18.0974 89.9116 18.4344 89.9518C18.7782 89.992 19.4926 90.0121 20.0858 89.992C20.6587 89.9719 21.4338 89.9116 21.8045 89.8513C22.1752 89.7843 22.6268 89.6905 22.8156 89.6369C22.9975 89.5833 23.3009 89.5096 23.4896 89.4694C23.6716 89.4292 23.8603 89.3756 23.894 89.3488C23.9277 89.3153 24.0558 89.2751 24.1636 89.2483C24.2714 89.2215 24.4602 89.1612 24.568 89.1143C24.6042 89.0986 24.6592 89.0739 24.7248 89.0444C24.855 88.9859 25.0267 88.9087 25.1746 88.8464C25.3971 88.7459 25.6262 88.6387 25.6801 88.6052C25.7116 88.5856 25.7982 88.541 25.905 88.4859C25.9812 88.4466 26.0678 88.4019 26.152 88.3573C26.3542 88.2568 26.7653 88.0089 27.0619 87.8079C27.3585 87.607 27.81 87.272 28.0729 87.0576C28.3358 86.8499 28.8548 86.3609 29.2255 85.979C29.6029 85.6038 30.0882 85.0545 30.3039 84.7731C30.5263 84.4917 30.9038 83.9624 31.1532 83.6007C31.4093 83.2389 31.7194 82.7967 31.8474 82.6091C31.8812 82.5614 31.9201 82.5063 31.9614 82.4478C32.0765 82.2847 32.2097 82.096 32.299 81.9727C32.3348 81.9204 32.3961 81.8316 32.4739 81.7191C32.6452 81.4711 32.8962 81.1078 33.1281 80.7668C33.4651 80.271 33.8493 79.715 33.9841 79.5274C34.1189 79.3465 34.5233 78.7703 34.8738 78.2545C35.2243 77.7386 35.6422 77.1357 35.7972 76.9146C35.9522 76.6935 36.1544 76.4322 36.2353 76.3317C36.3229 76.2245 36.3971 76.1039 36.3971 76.0637C36.3971 76.0168 36.4577 75.9163 36.5251 75.8427C36.5925 75.769 36.7678 75.5412 36.9093 75.3402C37.0144 75.191 37.1901 74.9346 37.3509 74.7001C37.4066 74.6187 37.4606 74.54 37.5092 74.4693C37.602 74.3342 37.7127 74.1748 37.8165 74.0254C37.9238 73.871 38.0238 73.7272 38.0888 73.6318C38.1651 73.5294 38.2738 73.3734 38.3843 73.2148C38.4691 73.0931 38.5549 72.9699 38.6281 72.8681C38.7898 72.6336 39.1875 72.0574 39.511 71.5952C39.6398 71.4111 39.7826 71.2058 39.9192 71.0093C40.1256 70.7123 40.3182 70.4353 40.4277 70.2821C40.5752 70.0757 40.8068 69.7373 40.997 69.4595C41.0414 69.3946 41.0836 69.333 41.1219 69.2771C41.1971 69.1711 41.2792 69.0547 41.3592 68.9413C41.5017 68.7394 41.6374 68.547 41.7151 68.4397C41.8297 68.2722 42.0588 67.9439 42.2273 67.7028C42.3891 67.4616 42.6722 67.0529 42.8609 66.7983C43.0496 66.5438 43.2518 66.249 43.3058 66.1485C43.3597 66.0413 43.7304 65.5187 44.1281 64.9828C44.5325 64.4401 45.1256 63.7233 45.4626 63.3816C45.7996 63.0466 46.3591 62.5442 46.7096 62.2695C47.06 61.9881 47.5319 61.6464 47.7543 61.499C47.9767 61.3583 48.2463 61.1909 48.3609 61.1306C48.4755 61.0703 48.7316 60.9363 48.9338 60.8358C49.136 60.7353 49.4393 60.5946 49.6078 60.5209C49.7083 60.481 49.828 60.4291 49.9326 60.3838C50.0033 60.3531 50.0671 60.3255 50.1134 60.3065C50.2279 60.2596 50.4638 60.1725 50.6526 60.1055C50.8346 60.0452 51.1581 59.9448 51.3603 59.8912C51.5625 59.8376 51.8523 59.7639 52.0006 59.7304C52.1489 59.6969 52.5735 59.6165 52.9442 59.5495C53.4632 59.4557 53.9553 59.4289 55.0674 59.4289C56.2065 59.4289 56.6176 59.4557 57.0018 59.5495C57.2714 59.6098 57.5748 59.6634 57.6759 59.6634C57.7837 59.6634 58.0803 59.7237 58.3364 59.7974C58.5004 59.8488 58.7279 59.9168 58.934 59.9783C59.0499 60.0129 59.159 60.0455 59.2463 60.072C59.489 60.1524 59.7721 60.2529 59.8866 60.2998C60.0012 60.3534 60.2708 60.474 60.4933 60.5678C60.7157 60.6683 61.019 60.809 61.1673 60.8827C61.2726 60.935 61.4084 61.0076 61.5194 61.0669C61.5647 61.0911 61.6059 61.1131 61.6391 61.1306C61.7537 61.1909 62.0233 61.3583 62.2457 61.499C62.4681 61.6464 62.9399 61.9881 63.2904 62.2695C63.6409 62.5442 64.2004 63.0399 64.5306 63.3749C64.8609 63.7099 65.3395 64.2726 65.6023 64.621C65.8652 64.9694 66.1415 65.3445 66.2224 65.4584C66.3033 65.5723 66.5999 65.9944 66.8762 66.3964C66.9683 66.5303 67.0709 66.6806 67.1734 66.8309C67.3787 67.1317 67.5839 67.4325 67.7053 67.6023C67.819 67.7614 67.9617 67.965 68.084 68.1394C68.1574 68.2441 68.2234 68.3384 68.2714 68.4062C68.3365 68.5016 68.4365 68.6454 68.5438 68.7999C68.6476 68.9493 68.7583 69.1086 68.8511 69.2437C69.0398 69.5183 69.2892 69.8734 69.3971 70.0208C69.427 70.0635 69.4657 70.1186 69.5095 70.1809C69.6236 70.3433 69.7722 70.5548 69.8891 70.7242C70.0576 70.9587 70.3744 71.421 70.6036 71.756C70.8327 72.0909 71.163 72.5733 71.345 72.8279C71.4587 72.987 71.6014 73.1905 71.7236 73.365C71.7971 73.4697 71.8631 73.564 71.9112 73.6318C71.9762 73.7272 72.0762 73.871 72.1835 74.0254C72.2873 74.1748 72.398 74.3342 72.4908 74.4693C72.5395 74.5401 72.5935 74.6189 72.6493 74.7004C72.81 74.9348 72.9856 75.191 73.0907 75.3402C73.2322 75.5412 73.4075 75.769 73.4749 75.8427C73.5423 75.9163 73.6029 76.0168 73.6029 76.0637C73.6029 76.1039 73.6771 76.2245 73.7647 76.3317C73.8456 76.4322 74.0478 76.6935 74.2028 76.9146C74.3578 77.1357 74.7757 77.7386 75.1262 78.2545C75.4767 78.7703 75.8811 79.3465 76.0159 79.5274C76.1507 79.715 76.5349 80.271 76.8719 80.7668C77.1035 81.1074 77.3542 81.4702 77.5255 81.7183C77.6036 81.8312 77.6651 81.9203 77.701 81.9727C77.7904 82.0962 77.9239 82.2852 78.0391 82.4486C78.0802 82.5067 78.1189 82.5616 78.1526 82.6091C78.2806 82.7967 78.5907 83.2389 78.8468 83.6007C79.0962 83.9624 79.4939 84.5051 79.7298 84.8066C79.9657 85.108 80.4645 85.6641 80.8419 86.046C81.2126 86.4278 81.7788 86.9437 82.0956 87.1916C82.4124 87.4395 82.8505 87.761 83.0729 87.9017C83.2953 88.0491 83.8278 88.3439 84.2524 88.565C84.6771 88.7794 85.1017 88.9804 85.1961 89.0138C85.2803 89.0378 85.5203 89.1258 85.753 89.2111L85.8364 89.2416C86.0925 89.3421 86.4767 89.456 86.6789 89.5029C86.8811 89.5498 87.0833 89.6034 87.117 89.6235C87.1507 89.6503 87.4877 89.7173 87.8585 89.7776C88.2292 89.8379 88.7886 89.9183 89.1054 89.9585C89.4222 89.992 90.1164 90.0121 90.6556 89.992C91.1949 89.9719 92.0239 89.8915 92.5092 89.8111C92.9945 89.7307 93.4326 89.6436 93.4865 89.6101C93.5404 89.5833 93.7089 89.5431 93.8572 89.5163C94.0055 89.4895 94.2347 89.4292 94.3627 89.3823C94.4908 89.3354 94.7806 89.2215 95.0031 89.1411C95.2255 89.0607 95.5423 88.9268 95.7108 88.8531C95.8293 88.8012 96.0044 88.7196 96.1636 88.6454C96.2308 88.6141 96.2951 88.5841 96.3511 88.5583C96.5331 88.4712 96.8094 88.3238 96.9577 88.2367C97.106 88.1429 97.3352 88.0089 97.4632 87.9352C97.5913 87.8615 97.8474 87.6941 98.0361 87.5601C98.2181 87.4261 98.508 87.2117 98.6765 87.0777C98.845 86.937 99.3101 86.4948 99.7212 86.0929C100.132 85.6909 100.577 85.2219 100.712 85.0545C100.847 84.887 101.062 84.6056 101.197 84.418C101.332 84.2371 101.501 83.9758 101.575 83.8485C101.649 83.7213 101.77 83.527 101.844 83.4131C101.912 83.2992 102.094 82.9977 102.249 82.7431C102.404 82.4885 102.586 82.1871 102.653 82.0732C102.727 81.9593 102.828 81.7851 102.889 81.6712C102.943 81.5573 103.112 81.2558 103.253 81.0013C103.401 80.7467 103.839 79.8958 104.224 79.1254C104.615 78.355 105.059 77.4572 105.208 77.1357C105.363 76.8074 105.484 76.526 105.484 76.4992C105.484 76.4657 105.551 76.3116 105.626 76.1441C105.7 75.9766 105.808 75.7623 105.862 75.6618C105.915 75.5546 105.956 75.434 105.956 75.3938C105.956 75.3469 106.017 75.1928 106.091 75.0588C106.165 74.9181 106.225 74.764 106.225 74.7238C106.225 74.6769 106.286 74.5162 106.354 74.3688C106.421 74.2214 106.536 73.9333 106.61 73.7323C106.672 73.5629 106.749 73.3458 106.796 73.2136L106.819 73.1495C106.839 73.0965 106.864 73.028 106.889 72.9582C106.921 72.8691 106.954 72.7779 106.98 72.714C106.994 72.6721 107.014 72.6148 107.037 72.5499C107.078 72.4283 107.13 72.2803 107.169 72.1579C107.206 72.0577 107.25 71.9327 107.29 71.8195C107.321 71.7285 107.35 71.6452 107.371 71.5885C107.412 71.4612 107.479 71.2334 107.513 71.086C107.547 70.9386 107.621 70.7309 107.668 70.617C107.722 70.5032 107.782 70.2821 107.816 70.1146C107.843 69.9471 107.904 69.7394 107.958 69.6456C108.005 69.5518 108.045 69.4178 108.045 69.3441C108.045 69.2704 108.106 69.0159 108.173 68.7747C108.248 68.5335 108.369 68.098 108.443 67.8033C108.471 67.6926 108.501 67.5707 108.529 67.4526C108.577 67.2561 108.622 67.0704 108.652 66.9658C108.692 66.7983 108.76 66.4701 108.8 66.2289C108.841 65.9877 108.915 65.646 108.962 65.4584C109.016 65.2775 109.083 64.9426 109.124 64.7215C109.139 64.6189 109.164 64.4529 109.191 64.2643C109.223 64.0463 109.26 63.7981 109.292 63.5826C109.353 63.1806 109.447 62.6513 109.501 62.4102C109.555 62.169 109.596 61.8541 109.596 61.7067C109.596 61.5593 109.643 61.1038 109.697 60.7018C109.751 60.2998 109.845 59.2413 109.899 58.357C109.953 57.4726 110 55.7844 110 54.6053C110 53.4261 109.953 51.7848 109.899 50.954C109.845 50.1233 109.771 49.2792 109.737 49.0782C109.697 48.8772 109.636 48.4082 109.602 48.0398C109.569 47.6713 109.488 47.0683 109.427 46.6999C109.366 46.3314 109.279 45.8356 109.225 45.5944C109.171 45.3533 109.11 45.025 109.083 44.8575C109.063 44.69 109.002 44.4086 108.955 44.221C108.908 44.0402 108.841 43.7387 108.82 43.5511C108.794 43.3702 108.726 43.1156 108.679 43.0017C108.625 42.8811 108.585 42.7137 108.585 42.6333C108.585 42.5462 108.531 42.2849 108.456 42.0437C108.442 41.9907 108.426 41.9335 108.409 41.8747C108.35 41.666 108.286 41.4375 108.254 41.3068C108.236 41.2427 108.211 41.1531 108.183 41.0523C108.138 40.8896 108.084 40.6977 108.039 40.5363C107.964 40.275 107.863 39.92 107.809 39.7324C107.756 39.5515 107.533 38.8682 107.304 38.225C107.075 37.5819 106.846 36.9186 106.792 36.7511C106.738 36.5836 106.65 36.3558 106.596 36.2487C106.542 36.1415 106.36 35.6859 106.185 35.2437L106.177 35.2224C106.005 34.7885 105.847 34.392 105.814 34.3393C105.787 34.2857 105.7 34.0914 105.619 33.9038C105.593 33.8454 105.562 33.7772 105.531 33.7066C105.465 33.5588 105.395 33.4007 105.349 33.3009C105.282 33.1535 105.107 32.7783 104.958 32.4634C104.81 32.1486 104.547 31.6059 104.372 31.2575C104.197 30.9092 103.941 30.4134 103.799 30.1521C103.745 30.0531 103.68 29.9338 103.613 29.8107C103.502 29.6091 103.386 29.3974 103.307 29.2477C103.186 29.0065 102.997 28.6782 102.889 28.5107C102.781 28.3433 102.619 28.0753 102.532 27.9078C102.444 27.7403 102.262 27.4321 102.121 27.2177C101.986 26.9967 101.777 26.6818 101.656 26.5143C101.534 26.3401 101.393 26.1056 101.339 25.9984C101.285 25.8912 101.056 25.5429 100.84 25.228C100.618 24.9131 100.301 24.4642 100.132 24.2231C99.9638 23.9819 99.7347 23.6536 99.6201 23.4861C99.5055 23.3186 99.2359 22.9569 99.027 22.6822C98.818 22.4075 98.4877 21.9921 98.3058 21.7711C98.117 21.5433 97.8744 21.2217 97.7531 21.0609C97.6385 20.9068 97.47 20.6991 97.3824 20.6053C97.2947 20.5115 97.0858 20.2704 96.924 20.0694C96.7623 19.8684 96.3983 19.4463 96.1152 19.1381C95.8388 18.8233 95.3468 18.294 95.03 17.9657C94.7132 17.6308 94.3493 17.2355 94.2212 17.0948C94.0931 16.9474 93.8101 16.6459 93.5809 16.4249C93.3585 16.1971 93.0551 15.9157 92.9069 15.7884C92.7653 15.6611 92.2396 15.1788 91.7408 14.7165C91.6008 14.5849 91.4635 14.4561 91.3373 14.3377C91.0201 14.04 90.7732 13.8083 90.7298 13.7652C90.6691 13.7116 90.3658 13.457 90.049 13.2024C89.7322 12.9478 89.4424 12.7066 89.4087 12.6664C89.375 12.6195 88.8964 12.2377 88.3505 11.8223C88.0603 11.598 87.7396 11.3528 87.4654 11.1431C87.2237 10.9584 87.0182 10.8012 86.9014 10.7102C86.652 10.5226 86.3217 10.2814 86.1734 10.1809L86.1414 10.1592C85.9806 10.0503 85.6711 9.84061 85.432 9.67177C85.2897 9.57498 85.0849 9.43681 84.8801 9.29865C84.7164 9.18818 84.5527 9.07772 84.421 8.98842L84.298 8.90787C84.0269 8.73021 83.7243 8.53188 83.5784 8.43906C83.492 8.38405 83.4001 8.32727 83.3231 8.2796C83.25 8.23438 83.1901 8.19735 83.1605 8.17778C83.1307 8.16131 83.0553 8.11569 82.9566 8.05605C82.8547 7.99438 82.7279 7.91773 82.6011 7.84281C82.3517 7.69542 82.0484 7.51453 81.9271 7.44084C81.8058 7.36714 81.5564 7.21975 81.3744 7.11926C81.1991 7.01877 81.0037 6.90488 80.9498 6.86468C80.8958 6.83118 80.7273 6.74409 80.579 6.6704C80.4308 6.5967 80.0938 6.41581 79.8376 6.27513C79.5815 6.12774 78.9749 5.81956 78.4896 5.57838C78.0043 5.3372 77.3707 5.02902 77.0741 4.89503C76.9142 4.81915 76.7248 4.73351 76.5557 4.65706C76.4113 4.59177 76.2817 4.53318 76.1979 4.49306C76.0765 4.44133 75.916 4.37018 75.772 4.30638C75.6923 4.27104 75.6177 4.23795 75.5576 4.21168C75.3891 4.13129 74.8297 3.9035 74.3107 3.69582C73.7917 3.48814 73.3333 3.32065 73.2996 3.32065C73.2659 3.32065 73.1109 3.26035 72.9626 3.18666C72.8143 3.11296 72.6526 3.05937 72.6054 3.05267C72.5649 3.05267 72.4234 3.01247 72.3088 2.95888C72.1875 2.91198 71.9179 2.81149 71.7157 2.73779C71.5135 2.6574 71.0754 2.51671 70.7384 2.41622C70.4013 2.32242 70.0576 2.20853 69.9632 2.17504C69.8689 2.14154 69.6262 2.06784 69.424 2.01425C69.3129 1.9848 69.1428 1.93918 68.9663 1.89182C68.8215 1.85298 68.6723 1.81297 68.5478 1.77977C68.2714 1.69937 67.8131 1.57878 67.5368 1.51179C67.4477 1.4902 67.3509 1.46652 67.2557 1.44322C67.0555 1.39422 66.8621 1.3469 66.7616 1.3242C66.6134 1.284 66.2022 1.19691 65.8517 1.12322C65.5012 1.04282 64.9822 0.93563 64.7059 0.882034C64.4295 0.821739 63.9577 0.748044 63.6612 0.707847C63.3646 0.66765 63.0882 0.614054 63.0545 0.593956C63.0208 0.567158 62.6366 0.513562 62.212 0.466666C61.7874 0.419769 61.1942 0.346075 60.8977 0.305878C60.6011 0.27238 59.799 0.191986 59.1115 0.131691ZM56.1998 66.738C55.8964 66.6711 55.4718 66.6309 54.9461 66.6376H54.9528C54.481 66.6442 53.9957 66.6844 53.7531 66.7447C53.5306 66.805 53.133 66.9189 52.8768 67.0127C52.6207 67.0998 52.1893 67.2874 51.9332 67.4281C51.6771 67.5755 51.2188 67.9172 50.9222 68.1918C50.6256 68.4665 50.2616 68.8618 50.1134 69.0695C49.9651 69.2771 49.7157 69.6188 49.5539 69.8332C49.3989 70.0409 49.2708 70.2419 49.2708 70.2821C49.2776 70.3156 49.2237 70.396 49.163 70.4496C49.1023 70.5032 48.954 70.6974 48.826 70.885C48.7542 70.992 48.6283 71.1739 48.4956 71.3656C48.4038 71.4982 48.3088 71.6355 48.2261 71.756C48.0172 72.0507 47.7475 72.4393 47.6195 72.6269C47.4914 72.8078 47.2151 73.203 47.0129 73.4978C46.8039 73.7926 46.5276 74.2013 46.3928 74.4023C46.2512 74.6032 46.1232 74.7841 46.1029 74.8042C46.0827 74.8243 45.9547 75.0052 45.8199 75.2062C45.7758 75.2687 45.7259 75.3404 45.6746 75.414C45.561 75.577 45.4404 75.7499 45.3615 75.856C45.2537 76.0168 45.1593 76.1642 45.1593 76.191C45.1661 76.2245 45.1256 76.2781 45.0784 76.3183C45.0312 76.3585 44.8425 76.6198 44.6538 76.8878C44.4718 77.1624 44.3033 77.3969 44.2831 77.417C44.2629 77.4371 44.1348 77.618 43.9933 77.819L43.993 77.8194C43.8581 78.0205 43.6022 78.402 43.4203 78.6564C43.2451 78.911 42.9822 79.2929 42.8339 79.4939C42.6924 79.6949 42.5037 79.9695 42.4228 80.0968C42.4078 80.1186 42.3901 80.1444 42.3703 80.1733C42.2742 80.3135 42.129 80.5253 42.0116 80.6864C41.9393 80.7891 41.8494 80.9128 41.7643 81.0298C41.6829 81.1417 41.606 81.2475 41.5533 81.3228C41.4387 81.4769 41.1354 81.9191 40.8793 82.3077L40.7187 82.5409C40.5217 82.827 40.3586 83.0638 40.3266 83.1116C40.2794 83.1652 40.1379 83.3528 40.0233 83.5337C39.902 83.7079 39.538 84.2304 39.2145 84.7061C38.8977 85.175 38.5876 85.6038 38.527 85.6574C38.4596 85.711 38.4124 85.778 38.4191 85.8048C38.4191 85.8383 38.3382 85.9723 38.2304 86.1063L38.2303 86.1064C38.1292 86.247 38.0282 86.3877 37.9945 86.4278C37.9903 86.4331 37.9846 86.4403 37.9776 86.4491C37.9401 86.4965 37.8662 86.5899 37.7923 86.669C37.7114 86.7628 37.5968 86.9102 37.5429 86.9973C37.489 87.0777 37.3205 87.3055 37.1654 87.4931C37.0172 87.6807 36.8756 87.8883 36.8487 87.9486C36.815 88.0424 36.8621 88.1094 37.0509 88.23C37.1924 88.3104 37.5968 88.5181 37.9473 88.6856C38.2978 88.8531 38.7696 89.0473 38.992 89.121L38.9938 89.1216C39.2161 89.1953 39.5182 89.2953 39.6661 89.3421C39.8143 89.389 40.2524 89.4895 40.6434 89.5632C41.0343 89.6369 41.7286 89.7106 42.1936 89.724C42.8744 89.7508 43.1844 89.724 43.8113 89.6034C44.2359 89.523 44.8156 89.3823 45.0919 89.2952C45.3683 89.2081 45.9142 88.9736 46.3051 88.7861C46.6961 88.5985 47.1342 88.3573 47.2825 88.2568C47.3528 88.2092 47.4489 88.1419 47.5484 88.0722C47.6588 87.995 47.7735 87.9147 47.8621 87.8548C48.0306 87.7343 48.2733 87.5467 48.3946 87.4328C48.5105 87.3297 48.7755 87.073 49.0196 86.8364L49.0956 86.7628C49.3517 86.5082 49.7426 86.0661 49.9583 85.7914C50.1808 85.5167 50.3964 85.242 50.4369 85.1884C50.4841 85.1348 50.6661 84.8736 50.8413 84.619C50.9794 84.4132 51.2136 84.0826 51.4156 83.7976C51.47 83.7208 51.522 83.6474 51.5692 83.5806C51.7917 83.2657 52.1691 82.723 52.405 82.3747C52.6409 82.0263 52.9442 81.5841 53.079 81.4032C53.1488 81.3011 53.2385 81.1751 53.3221 81.0577C53.392 80.9595 53.4576 80.8674 53.5037 80.8003C53.571 80.7083 53.6697 80.5668 53.7656 80.4295C53.8234 80.3467 53.8801 80.2654 53.9283 80.1973C54.0631 80.0097 54.326 79.6279 54.5147 79.3398C54.7574 78.9847 54.9056 78.8239 55 78.8239C55.0944 78.8239 55.2426 78.9847 55.4853 79.3398C55.674 79.6279 55.9369 80.0097 56.0717 80.1973C56.1199 80.2654 56.1767 80.3467 56.2345 80.4296C56.3303 80.5669 56.4291 80.7083 56.4963 80.8003C56.5424 80.8674 56.608 80.9595 56.6778 81.0576C56.7615 81.175 56.8512 81.3011 56.921 81.4032C57.0253 81.5433 57.2469 81.8641 57.4731 82.1915C57.539 82.287 57.6052 82.3829 57.6691 82.4751C57.9455 82.8771 58.3566 83.4667 58.579 83.7815C58.8015 84.0964 59.098 84.5185 59.2328 84.7195C59.3676 84.9205 59.5159 85.1348 59.5631 85.1884C59.6036 85.242 59.8192 85.5167 60.0417 85.7914C60.2574 86.0661 60.6483 86.5082 60.9044 86.7628L60.9804 86.8364C61.2245 87.073 61.4895 87.3297 61.6054 87.4328C61.7335 87.5467 61.9896 87.7476 62.1783 87.8816C62.3603 88.0156 62.7445 88.2635 63.0208 88.4243C63.2972 88.5851 63.7218 88.8129 63.9645 88.9268C64.2071 89.034 64.6317 89.2014 64.9081 89.2952C65.1844 89.3823 65.7641 89.523 66.1887 89.6034C66.8156 89.724 67.1256 89.7508 67.8064 89.724C68.2714 89.7106 68.9657 89.6369 69.3566 89.5632C69.7476 89.4895 70.1857 89.389 70.3339 89.3421C70.4818 89.2953 70.7839 89.1953 71.0062 89.1216L71.008 89.121C71.2304 89.0473 71.5809 88.9134 71.7831 88.8263C71.9853 88.7392 72.201 88.6387 72.2549 88.5985C72.3088 88.565 72.4234 88.5047 72.5043 88.4712C72.5919 88.431 72.7806 88.3305 72.9289 88.2367C73.1311 88.1094 73.1851 88.0424 73.1514 87.9486C73.1244 87.8883 72.9828 87.6807 72.8346 87.4931C72.6795 87.3055 72.511 87.0777 72.4571 86.9973C72.4032 86.9102 72.2886 86.7628 72.2077 86.669C72.1201 86.5752 72.0325 86.4613 72.0055 86.4278C71.988 86.4069 71.9522 86.3588 71.9066 86.2975C71.8647 86.2412 71.8146 86.1737 71.7629 86.1063C71.6618 85.9723 71.5809 85.8383 71.5809 85.8048C71.5876 85.778 71.5404 85.711 71.473 85.6574C71.4124 85.6038 71.1023 85.175 70.7855 84.7061C70.462 84.2304 70.098 83.7079 69.9767 83.5337C69.8621 83.3528 69.7206 83.1652 69.6734 83.1116C69.6602 83.092 69.6213 83.0361 69.5646 82.9547C69.4472 82.786 69.2533 82.5075 69.0533 82.2139C68.7567 81.7717 68.4399 81.3094 68.3456 81.1754C68.2512 81.0415 68.0827 80.807 67.9681 80.6663C67.8536 80.5189 67.7053 80.3112 67.6446 80.1973C67.5839 80.0834 67.3817 79.782 67.193 79.5274C67.0043 79.2728 66.7212 78.8641 66.5594 78.6229C66.3909 78.3818 66.0876 77.9463 65.8854 77.6515C65.6765 77.3567 65.4069 76.9615 65.2855 76.7806C65.1575 76.593 65.0092 76.3987 64.9485 76.3451C64.8879 76.2915 64.8339 76.2245 64.8407 76.191C64.8407 76.1642 64.7463 76.0168 64.6385 75.856C64.5596 75.7499 64.4391 75.5771 64.3255 75.4141C64.2742 75.3404 64.2242 75.2688 64.1801 75.2062C64.0453 75.0052 63.9173 74.8243 63.8971 74.8042C63.8768 74.7841 63.7488 74.6032 63.6072 74.4023C63.4724 74.2013 63.1961 73.7926 62.9871 73.4978C62.7849 73.203 62.5086 72.8078 62.3805 72.6269C62.2524 72.4393 61.9828 72.0507 61.7739 71.756C61.6912 71.6354 61.5961 71.4981 61.5043 71.3654C61.3716 71.1738 61.2457 70.9919 61.174 70.885C61.046 70.6974 60.8977 70.5032 60.837 70.4496C60.7763 70.396 60.7224 70.3156 60.7292 70.2821C60.7292 70.2419 60.6011 70.0409 60.4461 69.8332C60.2843 69.6188 60.0349 69.2771 59.8866 69.0695C59.7384 68.8618 59.3744 68.4665 59.0778 68.1918C58.7812 67.9172 58.3229 67.5755 58.0668 67.4281C57.8107 67.2874 57.3793 67.0998 57.1232 67.0127C56.867 66.9256 56.4491 66.7983 56.1998 66.738ZM50.3829 9.64503C50.9761 9.58474 51.886 9.51774 52.405 9.49094C52.924 9.47084 54.3664 9.45745 55.6066 9.46414C56.8468 9.47754 58.1341 9.51104 58.4711 9.54454C58.8082 9.58474 59.4283 9.64503 59.8529 9.68523C60.2775 9.72543 60.8707 9.80582 61.1672 9.85942C61.4638 9.91301 61.9221 9.98671 62.1783 10.0202C62.4344 10.0537 62.8321 10.1274 63.0545 10.1877C63.2769 10.2413 63.5398 10.2882 63.6476 10.2882C63.7487 10.2882 63.9105 10.3217 64.0183 10.3619C64.1194 10.4021 64.3958 10.4758 64.6384 10.5227C64.8811 10.5763 65.2113 10.65 65.3799 10.6969C65.5484 10.737 65.8988 10.8308 66.155 10.9045C66.2393 10.9288 66.3404 10.9574 66.4468 10.9875C66.6635 11.0489 66.9021 11.1164 67.0649 11.1658C67.3075 11.2328 67.9142 11.4271 68.4129 11.5946C68.7117 11.6909 69.0274 11.7968 69.2688 11.8778C69.4304 11.932 69.5586 11.9751 69.6262 11.9966C69.7572 12.0434 70.0308 12.147 70.3044 12.2506C70.3827 12.2802 70.4611 12.3099 70.5361 12.3382C70.8731 12.4722 71.4325 12.7 71.783 12.8474C72.1335 12.9881 72.639 13.2092 72.8952 13.3298C73.0802 13.4217 73.4729 13.6116 73.8799 13.8085C74.0362 13.8841 74.1947 13.9607 74.3443 14.0332C74.8835 14.2945 75.5373 14.6295 75.7935 14.7768C76.0496 14.9242 76.3529 15.085 76.4675 15.1453C76.5821 15.1989 76.791 15.3195 76.9393 15.4133C77.0876 15.5071 77.2763 15.6143 77.3639 15.6478C77.4448 15.688 77.6672 15.822 77.8492 15.9493C78.0379 16.0765 78.1997 16.1837 78.2199 16.1837C78.2401 16.1837 78.3345 16.2373 78.4424 16.311C78.4741 16.3321 78.5424 16.3775 78.6362 16.44C78.841 16.5764 79.1676 16.7939 79.5006 17.0145C79.9859 17.3361 80.5588 17.7246 80.7812 17.8921C80.9036 17.9806 81.0504 18.0852 81.1824 18.1794C81.2904 18.2563 81.3885 18.3262 81.4552 18.3745C81.6035 18.475 82.1629 18.9037 82.7022 19.3258C83.2414 19.7479 83.7267 20.1364 83.7873 20.1967C83.848 20.257 84.0435 20.4245 84.2187 20.5719C84.4007 20.7193 84.704 20.9739 84.886 21.1414C85.0747 21.3088 85.4589 21.6505 85.7352 21.9118C86.0116 22.1731 86.5778 22.7291 87.0024 23.1512C87.427 23.5733 88.0471 24.2231 88.3841 24.5916C88.7211 24.9601 89.0716 25.3553 89.166 25.4625C89.2604 25.5697 89.4963 25.8444 89.6783 26.0655C89.7161 26.1098 89.7545 26.155 89.7923 26.1995C89.943 26.3766 90.0841 26.5425 90.1433 26.6014C90.2107 26.6751 90.3927 26.9029 90.5477 27.1039C90.696 27.3049 90.878 27.5327 90.9522 27.6064C91.0196 27.6801 91.1207 27.8141 91.1813 27.9078C91.242 28.0016 91.4442 28.2696 91.6329 28.5108C91.8216 28.752 92.0643 29.0803 92.1721 29.2477C92.2867 29.4152 92.3878 29.5626 92.408 29.5827C92.4283 29.6028 92.6911 29.978 92.981 30.4202C93.0246 30.4852 93.0678 30.5496 93.1098 30.6122C93.3536 30.9752 93.5588 31.2809 93.5876 31.338C93.6041 31.3676 93.65 31.4426 93.71 31.5406C93.772 31.642 93.8492 31.768 93.9246 31.894C94.0234 32.0592 94.1401 32.2511 94.2309 32.4004C94.2765 32.4752 94.3155 32.5394 94.3425 32.5841C94.4301 32.7181 94.5447 32.9258 94.5986 33.033C94.6191 33.0691 94.6457 33.1175 94.6754 33.1715C94.7336 33.2773 94.8034 33.4043 94.8615 33.5019C94.9491 33.6493 95.1243 33.9642 95.2457 34.2054C95.367 34.4466 95.4816 34.6542 95.5085 34.6743C95.5287 34.6944 95.7579 35.1299 96.0073 35.6458C96.2567 36.1616 96.5061 36.6775 96.5533 36.7847C96.6004 36.8919 96.7218 37.1665 96.8229 37.3876C96.924 37.6087 97.0453 37.8834 97.0925 37.9906C97.1397 38.0978 97.2408 38.3256 97.3216 38.493C97.3958 38.6605 97.4632 38.8414 97.4632 38.895C97.4632 38.9486 97.5036 39.0558 97.5575 39.1295C97.6047 39.2032 97.6789 39.3707 97.7193 39.498C97.7598 39.6253 97.8676 39.9401 97.9687 40.2014L97.986 40.2493C98.0766 40.5001 98.1797 40.7853 98.2113 40.9049C98.245 41.0322 98.3057 41.1996 98.3461 41.2733C98.3799 41.347 98.454 41.5614 98.5012 41.7423C98.5551 41.9299 98.6629 42.285 98.7438 42.5462C98.7809 42.6768 98.8314 42.8459 98.8819 43.015C98.9325 43.1842 98.9831 43.3535 99.0202 43.4842C99.0943 43.7454 99.2022 44.1541 99.2561 44.4087C99.3033 44.6566 99.3774 44.9112 99.4111 44.9782C99.4448 45.0385 99.492 45.2461 99.5122 45.427C99.5392 45.6146 99.6066 45.9161 99.6537 46.097C99.7077 46.2846 99.7683 46.5994 99.7886 46.8004C99.8155 47.0014 99.8762 47.323 99.9234 47.5039C99.9773 47.6914 100.045 48.0934 100.085 48.4083C100.126 48.7232 100.186 49.2189 100.22 49.5137C100.26 49.8085 100.321 50.3846 100.361 50.7866C100.402 51.1886 100.463 52.1734 100.503 52.964C100.543 53.7545 100.557 54.9939 100.537 55.7107C100.51 56.4276 100.449 57.5464 100.395 58.1896C100.335 58.8327 100.233 59.8711 100.153 60.5009C100.078 61.1306 99.9705 61.8341 99.9234 62.0753C99.8694 62.3164 99.7953 62.7586 99.7549 63.0668C99.7212 63.3683 99.6605 63.6697 99.6268 63.7367C99.5931 63.797 99.5459 64.0047 99.5189 64.1856C99.492 64.3732 99.4313 64.6747 99.3841 64.8556C99.3302 65.0431 99.2426 65.3848 99.1819 65.626C99.1145 65.8672 99.0269 66.2289 98.9797 66.4299C98.9566 66.5161 98.9298 66.6207 98.903 66.7253C98.8672 66.8647 98.8314 67.0042 98.8045 67.0999C98.764 67.2674 98.6697 67.5554 98.609 67.7363C98.5416 67.9239 98.4203 68.2991 98.3394 68.5738C98.2518 68.8484 98.1237 69.2437 98.0496 69.4447C98.0093 69.554 97.963 69.685 97.9216 69.8023C97.8868 69.9008 97.8554 69.9896 97.8339 70.0477C97.8291 70.0607 97.8231 70.0769 97.816 70.0961C97.7537 70.2648 97.6084 70.6582 97.4632 71.0191C97.3082 71.4211 97.0588 72.0441 96.9105 72.3925C96.7555 72.7409 96.5196 73.2701 96.3848 73.5649C96.2968 73.748 96.2141 73.9286 96.1576 74.0519C96.1231 74.1271 96.0984 74.181 96.0882 74.2013C96.068 74.2549 96.0208 74.3487 95.9803 74.4023C95.9466 74.4559 95.886 74.5765 95.8455 74.6703C95.8118 74.7641 95.7512 74.8847 95.7175 74.9383C95.6838 74.9919 95.5692 75.213 95.4681 75.4207C95.3602 75.635 95.2254 75.8896 95.1715 75.9901C95.1176 76.0973 94.8143 76.6266 94.4975 77.1692C94.316 77.484 94.1433 77.7812 94.0226 77.9889C93.9327 78.1437 93.8716 78.2489 93.8572 78.2746C93.8235 78.3349 93.6819 78.556 93.5404 78.757C93.4056 78.958 93.136 79.2796 92.9338 79.4671C92.7383 79.6547 92.4485 79.8892 92.2934 79.983C92.1317 80.0835 91.8419 80.2242 91.6531 80.2979C91.4577 80.3716 91.0802 80.4654 90.8241 80.5056C90.5073 80.5458 90.1635 80.5458 89.7659 80.4989C89.4356 80.4654 89.1188 80.4051 89.0582 80.3716C89.034 80.3596 88.9881 80.3372 88.9293 80.3085C88.8242 80.2573 88.6775 80.1857 88.5392 80.117C88.2898 80.0031 87.9595 79.7485 87.6629 79.4604C87.3933 79.1992 86.9283 78.6096 86.598 78.1206C86.2745 77.6382 86.0116 77.1893 86.0116 77.1156C86.0116 77.0419 86.3621 76.4524 86.7934 75.8092C87.2248 75.1661 87.636 74.5296 87.7169 74.4023C87.7606 74.3335 87.8102 74.2529 87.8541 74.1818C87.8913 74.1213 87.9243 74.0677 87.946 74.0339C87.9932 73.9602 88.0741 73.8128 88.1348 73.6989C88.1887 73.585 88.31 73.3773 88.3976 73.2299C88.4852 73.0825 88.6066 72.8748 88.6672 72.7609C88.7055 72.6802 88.7878 72.5285 88.871 72.3755C88.905 72.3128 88.9392 72.2499 88.9705 72.1915C89.0851 71.9905 89.1727 71.7895 89.1727 71.756C89.166 71.7225 89.2132 71.6421 89.2738 71.5885C89.3278 71.5349 89.3952 71.4144 89.4087 71.3206C89.4221 71.2268 89.4895 71.1062 89.5435 71.0526C89.6041 70.999 89.6648 70.865 89.6783 70.7511C89.6985 70.6372 89.7591 70.5032 89.8131 70.4496C89.8737 70.396 89.9209 70.3156 89.9209 70.2821C89.9142 70.2486 89.9681 70.0946 90.0422 69.9472C90.1096 69.7998 90.231 69.5117 90.3118 69.3107C90.3468 69.2306 90.3881 69.1356 90.4295 69.0405C90.4919 68.8971 90.5544 68.7535 90.5949 68.6609C90.6623 68.5001 90.723 68.3393 90.723 68.3058C90.723 68.2723 90.7702 68.1383 90.8241 68.0244C90.878 67.9038 90.9656 67.6693 91.0263 67.5018C91.087 67.3344 91.1813 67.0664 91.2352 66.8989C91.2824 66.7314 91.37 66.45 91.4307 66.2624C91.4581 66.1808 91.4882 66.0869 91.5168 65.9979C91.5514 65.8898 91.5838 65.789 91.6059 65.7265C91.6464 65.6126 91.7205 65.3781 91.7677 65.1905C91.8007 65.0799 91.8412 64.9292 91.8785 64.7906C91.9022 64.7024 91.9246 64.6191 91.943 64.5541C91.9633 64.4697 91.9974 64.3444 92.034 64.21C92.07 64.0778 92.1083 63.9367 92.1384 63.8171C92.2058 63.5759 92.2935 63.2142 92.3339 63.0132C92.3743 62.8122 92.4687 62.3298 92.5428 61.9413C92.617 61.5527 92.6911 61.1775 92.7113 61.1038C92.73 61.0358 92.7659 60.7735 92.8032 60.5017L92.8124 60.4339C92.8462 60.1391 92.9068 59.7639 92.9405 59.5964C92.9742 59.429 93.0214 58.9466 93.0484 58.5245C93.0753 58.1025 93.1292 57.466 93.1697 57.1176C93.2101 56.7693 93.2438 55.6839 93.2438 54.7058C93.2438 53.7277 93.2101 52.6156 93.1697 52.227C93.1292 51.8384 93.0686 51.1752 93.0484 50.7531C93.0214 50.3311 92.981 49.9224 92.9473 49.8487C92.9203 49.775 92.8596 49.3663 92.8124 48.9443C92.7653 48.5222 92.6844 48.0532 92.6305 47.9058C92.5833 47.7584 92.5428 47.524 92.5428 47.39C92.5428 47.2493 92.4822 46.9478 92.408 46.72C92.3339 46.4855 92.2732 46.2243 92.2732 46.1305C92.2732 46.0367 92.2126 45.7888 92.1384 45.5811C92.0643 45.3667 92.0036 45.1255 92.0036 45.0452C92.0036 44.9581 91.943 44.6968 91.8621 44.4556C91.7812 44.2144 91.6868 43.9263 91.6531 43.8191C91.6184 43.727 91.5637 43.536 91.5148 43.3651C91.5068 43.3371 91.499 43.3096 91.4914 43.2832C91.4442 43.1023 91.3566 42.8008 91.2959 42.6132C91.2352 42.4324 91.1409 42.1979 91.087 42.0974C91.033 41.9902 90.9926 41.8562 90.9926 41.7959C90.9926 41.7289 90.9319 41.5614 90.8578 41.4274C90.7837 41.2867 90.723 41.1259 90.723 41.0724C90.723 41.0188 90.6623 40.8446 90.5949 40.6905C90.5208 40.5297 90.3388 40.1009 90.1838 39.7325C90.0287 39.364 89.8737 39.0156 89.84 38.962C89.8063 38.9084 89.7457 38.7878 89.712 38.694C89.6715 38.6002 89.6109 38.4796 89.5772 38.4261C89.5367 38.3725 89.4761 38.2519 89.4424 38.1581C89.4019 38.0643 89.3412 37.9437 89.3075 37.8901C89.2671 37.8365 89.2064 37.7159 89.1727 37.6221C89.1323 37.5283 89.011 37.2737 88.8964 37.0527C88.7818 36.8316 88.4852 36.3023 88.2426 35.8802C87.9999 35.4582 87.6966 34.9423 87.5686 34.7413C87.5012 34.6408 87.4152 34.5069 87.3293 34.3729C87.2434 34.2389 87.1574 34.1049 87.09 34.0044C86.9552 33.8034 86.8339 33.6024 86.8137 33.5622C86.7935 33.522 86.5643 33.1937 86.3082 32.8387C86.052 32.4769 85.4724 31.7266 85.0343 31.1705C84.5961 30.6077 84.185 30.1053 84.1243 30.045C84.0637 29.9847 83.8952 29.7904 83.7469 29.6162C83.5986 29.442 83.2818 29.087 83.0459 28.8257C82.81 28.5577 82.2775 28.015 81.8664 27.6131C81.4552 27.2111 80.7138 26.5345 80.2218 26.1057C79.723 25.6769 79.1501 25.2013 78.9411 25.0405C78.7254 24.8797 78.4828 24.6854 78.3952 24.605C78.3008 24.5246 78.0919 24.3571 77.9234 24.2365C77.7481 24.1159 77.5392 23.9685 77.4448 23.9016C77.3504 23.8413 77.2628 23.7743 77.2426 23.7542C77.2224 23.7341 76.7573 23.4125 76.1979 23.0507C75.6452 22.6822 75.1397 22.354 75.0723 22.3138C75.0418 22.2936 74.9349 22.2312 74.789 22.146C74.6444 22.0616 74.4615 21.9549 74.2769 21.8448C73.8995 21.6237 73.367 21.3222 73.0906 21.1749L73.0238 21.1392C72.7562 20.9965 72.4226 20.8186 72.2549 20.726C72.0661 20.6188 71.8774 20.5384 71.837 20.5384C71.7898 20.5451 71.7022 20.4982 71.6482 20.4379C71.5943 20.3776 71.4595 20.3173 71.3449 20.3039C71.2303 20.2838 71.0955 20.2235 71.0416 20.1699C70.9877 20.1096 70.9068 20.0627 70.8731 20.0627C70.8394 20.0694 70.6776 20.0091 70.5226 19.9355C70.3609 19.8618 70.1047 19.7479 69.9497 19.6809C69.8358 19.629 69.6652 19.5572 69.5083 19.4912C69.4423 19.4634 69.3788 19.4367 69.3229 19.4129C69.1409 19.3392 68.8106 19.2119 68.6017 19.1382C68.5079 19.1033 68.3913 19.062 68.2739 19.0205C68.1211 18.9664 67.967 18.9119 67.8602 18.8702C67.6648 18.8032 67.3952 18.7094 67.2671 18.6625C67.2337 18.6521 67.1925 18.6388 67.1468 18.6242C67.0175 18.5827 66.8524 18.5297 66.7279 18.4951C66.5594 18.4482 66.337 18.3745 66.2224 18.3343C66.1532 18.314 66.0397 18.2767 65.9192 18.237C65.8401 18.211 65.7579 18.184 65.6832 18.1601C65.5012 18.0998 65.2113 18.0261 65.0428 17.9926C64.8743 17.9591 64.5912 17.8854 64.4025 17.8318C64.2205 17.7782 63.9172 17.6978 63.7285 17.6509C63.703 17.6453 63.6741 17.6388 63.6427 17.6318C63.4502 17.5889 63.162 17.5247 62.9534 17.4901C62.7107 17.4432 62.2457 17.3561 61.9086 17.2959C61.7226 17.2626 61.5119 17.2231 61.3287 17.1889C61.1801 17.1611 61.0496 17.1367 60.965 17.1217C60.783 17.0815 60.3112 17.0212 59.9203 16.9877C59.5294 16.9475 58.9093 16.8738 58.5386 16.8202C58.033 16.7465 57.1568 16.7197 55 16.7197C52.8431 16.7197 51.9669 16.7465 51.4613 16.8202C51.0906 16.8738 50.4705 16.9475 50.0796 16.9877C49.6887 17.0212 49.2034 17.0882 49.0012 17.1217C48.8318 17.1553 48.5062 17.2172 48.2188 17.2719C48.1631 17.2825 48.1089 17.2928 48.0575 17.3026C47.7408 17.3561 47.2892 17.4432 47.0465 17.4901C46.8646 17.5203 46.6257 17.573 46.4381 17.6145C46.3755 17.6283 46.3186 17.6409 46.2714 17.6509C46.0894 17.6978 45.7861 17.7782 45.5974 17.8318C45.4154 17.8854 45.1256 17.9591 44.9571 17.9926C44.7886 18.0261 44.5055 18.0998 44.3167 18.1601C44.1348 18.2204 43.8854 18.3008 43.7775 18.3343C43.6697 18.3745 43.4405 18.4482 43.272 18.4951C43.1475 18.5297 42.9825 18.5827 42.8532 18.6242C42.8075 18.6388 42.7662 18.6521 42.7328 18.6625C42.6513 18.6924 42.5125 18.7412 42.3737 18.79C42.2944 18.818 42.215 18.8459 42.1464 18.8702C42.0573 18.9038 41.9389 18.9457 41.8165 18.989C41.6704 19.0408 41.5187 19.0944 41.405 19.1382C41.2052 19.2065 40.9128 19.3207 40.7208 19.3958L40.677 19.4129C40.6046 19.4449 40.516 19.4822 40.426 19.5202C40.2899 19.5776 40.1502 19.6365 40.0569 19.6809C39.8952 19.7479 39.639 19.8618 39.484 19.9355C39.3223 20.0091 39.1605 20.0694 39.1268 20.0627C39.0931 20.0627 39.0122 20.1096 38.9583 20.1699C38.9044 20.2235 38.7628 20.2838 38.655 20.3039C38.5471 20.3173 38.4056 20.3776 38.3517 20.4379C38.2977 20.4982 38.2101 20.5451 38.1697 20.5384C38.1225 20.5384 37.9338 20.6188 37.745 20.726C37.5773 20.8186 37.2435 20.9966 36.9759 21.1393L36.9093 21.1749C36.6329 21.3222 36.1004 21.6237 35.723 21.8448C35.5384 21.9549 35.3555 22.0617 35.2109 22.1461C35.065 22.2312 34.9581 22.2936 34.9276 22.3138C34.9068 22.3276 34.8654 22.3532 34.8109 22.3868C34.7067 22.4513 34.5548 22.5452 34.4086 22.642C34.1862 22.7827 33.9301 22.9502 33.8357 23.0172C33.7897 23.0466 33.7021 23.1063 33.5962 23.1783C33.4849 23.254 33.3535 23.3435 33.2291 23.4259C32.9865 23.5867 32.7775 23.7341 32.7573 23.7542C32.7371 23.7743 32.6495 23.8413 32.5551 23.9016C32.4607 23.9685 32.2518 24.1159 32.0765 24.2365C31.908 24.3571 31.6991 24.5246 31.6047 24.605C31.5171 24.6854 31.2745 24.8797 31.0588 25.0405C30.8498 25.2013 30.2769 25.6769 29.7781 26.1057C29.2861 26.5345 28.5447 27.2111 28.1335 27.6131C27.7224 28.015 27.1899 28.5577 26.954 28.8257C26.7181 29.087 26.4013 29.442 26.253 29.6162C26.1047 29.7904 25.9362 29.9847 25.8756 30.045C25.8149 30.1053 25.4037 30.6077 24.9656 31.1705C24.5275 31.7266 23.9546 32.4769 23.6917 32.8387C23.4289 33.1937 23.2064 33.522 23.1862 33.5622C23.166 33.6024 23.0312 33.8168 22.8897 34.0379C22.7414 34.259 22.5257 34.5939 22.4111 34.7748C22.2898 34.9624 21.9999 35.4582 21.7573 35.8802C21.5147 36.3023 21.2181 36.8316 21.1035 37.0527C20.9889 37.2737 20.8676 37.5283 20.8272 37.6221C20.7935 37.7159 20.7328 37.8365 20.6923 37.8901C20.6586 37.9437 20.598 38.0643 20.5575 38.1581C20.5238 38.2519 20.4632 38.3725 20.4227 38.4261C20.389 38.4796 20.3284 38.6002 20.2879 38.694C20.2542 38.7878 20.1936 38.9084 20.1599 38.962C20.1262 39.0156 19.9711 39.364 19.8161 39.7325C19.6611 40.1009 19.4791 40.5297 19.405 40.6905C19.3376 40.8446 19.2769 41.0188 19.2769 41.0724C19.2769 41.1259 19.2162 41.2867 19.1421 41.4274C19.068 41.5614 19.0073 41.7289 19.0073 41.7959C19.0073 41.8562 18.9669 41.9902 18.9129 42.0974C18.859 42.1979 18.7647 42.4324 18.704 42.6132C18.6433 42.8008 18.5557 43.1023 18.5085 43.2832C18.4546 43.4708 18.3805 43.712 18.3468 43.8191C18.3063 43.9263 18.212 44.2144 18.1378 44.4556C18.0569 44.6968 17.9963 44.9581 17.9963 45.0452C17.9963 45.1255 17.9356 45.3667 17.8615 45.5811C17.7873 45.7888 17.7267 46.0367 17.7267 46.1305C17.7267 46.2243 17.666 46.4855 17.5919 46.72C17.5177 46.9478 17.4571 47.2493 17.4571 47.39C17.4571 47.524 17.4166 47.7584 17.3694 47.9058C17.3155 48.0532 17.2346 48.5222 17.1874 48.9443C17.1403 49.3663 17.0796 49.775 17.0526 49.8487C17.0189 49.9224 16.9785 50.3311 16.9515 50.7531C16.9313 51.1752 16.8707 51.8384 16.8302 52.227C16.7898 52.6156 16.7561 53.7277 16.7561 54.7058C16.7561 55.6839 16.7898 56.7693 16.8302 57.1176C16.8707 57.466 16.9246 58.1025 16.9515 58.5245C16.9785 58.9466 17.0257 59.429 17.0594 59.5964C17.0931 59.7639 17.1537 60.1525 17.1942 60.4674C17.2279 60.7823 17.2886 61.1306 17.3223 61.2378C17.356 61.345 17.4031 61.5929 17.4234 61.7738C17.4503 61.9614 17.5245 62.3499 17.5919 62.6447C17.6079 62.7151 17.6252 62.7911 17.6427 62.8687C17.6988 63.116 17.7581 63.3779 17.7941 63.5157C17.8323 63.6929 17.9006 63.9839 17.9478 64.185L17.9558 64.2191C17.9659 64.2566 17.9771 64.2987 17.9891 64.3437C18.0415 64.5403 18.1087 64.7925 18.158 64.956C18.2187 65.157 18.3333 65.5389 18.4074 65.7935C18.4816 66.0481 18.5759 66.3361 18.6164 66.4299C18.6568 66.5237 18.7242 66.7314 18.7714 66.8989C18.8186 67.0664 18.9129 67.3344 18.9736 67.5018C19.0343 67.6693 19.1219 67.9038 19.1758 68.0244C19.2297 68.1383 19.2769 68.2723 19.2769 68.3058C19.2769 68.3393 19.3376 68.5001 19.405 68.6609C19.4455 68.7534 19.5078 68.8967 19.5702 69.0399C19.6116 69.1352 19.6531 69.2304 19.6881 69.3107C19.7689 69.5117 19.8903 69.7998 19.9577 69.9472C20.0318 70.0946 20.0857 70.2486 20.079 70.2821C20.079 70.3156 20.1262 70.396 20.1868 70.4496C20.2408 70.5032 20.3014 70.6372 20.3216 70.7511C20.3351 70.865 20.3958 70.999 20.4564 71.0526C20.5104 71.1062 20.5778 71.2268 20.5912 71.3206C20.6047 71.4144 20.6721 71.5349 20.7261 71.5885C20.7867 71.6421 20.8339 71.7225 20.8272 71.756C20.8272 71.7895 20.9148 71.9905 21.0294 72.1915C21.0607 72.2499 21.0949 72.3128 21.1289 72.3755C21.212 72.5285 21.2944 72.6801 21.3327 72.7609C21.3933 72.8748 21.5147 73.0825 21.6023 73.2299C21.6899 73.3773 21.8112 73.585 21.8651 73.6989C21.9258 73.8128 22.0067 73.9602 22.0539 74.0339C22.0755 74.0677 22.1086 74.1214 22.1459 74.1818C22.1897 74.253 22.2393 74.3335 22.283 74.4023C22.3639 74.5296 22.7751 75.1661 23.2064 75.8092C23.6378 76.4524 23.9883 77.0419 23.9883 77.1156C23.9883 77.1893 23.7254 77.6382 23.4019 78.1206C23.0716 78.6096 22.6066 79.1992 22.337 79.4604C22.0404 79.7485 21.7101 80.0031 21.4607 80.117C21.3831 80.1556 21.3029 80.195 21.2291 80.2313C21.0979 80.2958 20.9873 80.3501 20.9485 80.3716C20.8811 80.4051 20.5778 80.4587 20.2745 80.4989C19.9644 80.5324 19.5196 80.5458 19.2769 80.519C19.0343 80.4989 18.6501 80.4051 18.4209 80.318C18.185 80.2376 17.8682 80.0835 17.7132 79.983C17.5514 79.8892 17.2616 79.6547 17.0661 79.4671C16.8639 79.2796 16.5943 78.958 16.4595 78.757C16.318 78.556 16.1764 78.3349 16.1427 78.2746C16.109 78.2143 15.7855 77.6583 15.4215 77.0352C15.0643 76.4189 14.6801 75.7288 14.5723 75.5077C14.4577 75.2867 14.3498 75.0589 14.3296 75.0053C14.3094 74.9517 14.2622 74.8579 14.2218 74.8043C14.1881 74.7507 14.1274 74.6301 14.087 74.5363C14.0533 74.4425 13.9926 74.3219 13.9589 74.2683C13.9195 74.2162 13.7845 73.9294 13.6407 73.624L13.6286 73.5984C13.4871 73.2835 13.2444 72.7409 13.0894 72.3925C12.9411 72.0441 12.7524 71.5751 12.6715 71.3541C12.5906 71.133 12.4828 70.865 12.4356 70.7511C12.3884 70.6372 12.2873 70.3826 12.2132 70.1816C12.139 69.9807 12.0379 69.6859 12.0042 69.5318C11.9638 69.371 11.9099 69.2303 11.8829 69.2169C11.8492 69.2035 11.8088 69.0695 11.7818 68.9154C11.7481 68.7681 11.6874 68.5403 11.6335 68.4264C11.5863 68.3058 11.4785 67.9842 11.3976 67.7229C11.3365 67.5019 11.2386 67.1759 11.1646 66.9294C11.1489 66.8771 11.1342 66.8284 11.1213 66.785C11.1001 66.7049 11.0735 66.6063 11.0448 66.4996C10.9822 66.2669 10.9092 65.9956 10.8584 65.7935C10.7843 65.4987 10.6764 65.0632 10.6225 64.8221C10.5686 64.5809 10.4607 64.0985 10.3866 63.7501C10.3124 63.4018 10.2316 62.9797 10.2113 62.8122C10.1911 62.6447 10.1305 62.3164 10.0765 62.0753C10.0226 61.8341 9.92152 61.1306 9.84737 60.5009C9.76649 59.8711 9.65865 58.8059 9.59125 58.1226C9.51036 57.2583 9.47666 56.2199 9.47666 54.6723C9.47666 53.1046 9.51036 52.0863 9.59799 51.1551C9.65865 50.4382 9.74627 49.6209 9.77997 49.3462C9.81367 49.0715 9.87434 48.5758 9.90804 48.2408C9.94848 47.9058 10.0226 47.4436 10.0765 47.2024C10.1372 46.9612 10.2046 46.5726 10.245 46.3315C10.2787 46.0903 10.3664 45.628 10.4405 45.293C10.5079 44.9581 10.6023 44.5427 10.6495 44.3551C10.682 44.2095 10.7538 43.9251 10.8193 43.666C10.8352 43.6031 10.8507 43.5417 10.8651 43.4842C10.9393 43.1894 11.0539 42.7673 11.128 42.5462C11.1954 42.3252 11.2561 42.084 11.2561 42.0103C11.2561 41.9366 11.3033 41.7825 11.3572 41.6753C11.4178 41.5681 11.4785 41.3671 11.5055 41.2398C11.5257 41.1125 11.5863 40.925 11.6335 40.8245C11.6874 40.7173 11.7548 40.523 11.7886 40.389C11.7927 40.3744 11.7973 40.3586 11.8021 40.3416C11.8442 40.195 11.9094 39.9676 11.9638 39.7994C11.9827 39.7488 12.0031 39.6929 12.0238 39.6363C12.0771 39.4908 12.132 39.3407 12.166 39.2635C12.1972 39.1927 12.2518 39.0548 12.3086 38.9114C12.3379 38.8376 12.3677 38.7623 12.3952 38.694C12.4693 38.493 12.5367 38.2921 12.5367 38.2586C12.5367 38.2251 12.5974 38.071 12.6648 37.9236C12.7322 37.7762 12.8602 37.4881 12.9411 37.2871C13.022 37.0862 13.1299 36.8249 13.177 36.7177C13.231 36.6105 13.3523 36.3358 13.4466 36.1147C13.541 35.8936 13.6488 35.6659 13.6893 35.6123C13.723 35.5587 13.7836 35.4381 13.8241 35.3443C13.8514 35.2682 13.9186 35.1174 13.9826 34.9737C13.9975 34.9402 14.0123 34.907 14.0263 34.8753C14.1004 34.7078 14.1881 34.5269 14.2218 34.4734C14.2555 34.4198 14.3903 34.1652 14.5251 33.9039C14.6531 33.6426 14.8823 33.2272 15.0306 32.966C15.1789 32.7047 15.3474 32.4032 15.4013 32.296C15.4159 32.2703 15.4336 32.2387 15.4532 32.2037C15.5151 32.0933 15.596 31.9489 15.6574 31.8472C15.7113 31.7578 15.8072 31.603 15.903 31.4482C15.951 31.3708 15.9989 31.2933 16.0416 31.2241C16.0639 31.1879 16.0871 31.1504 16.1104 31.1128C16.2207 30.9345 16.3341 30.751 16.3786 30.668C16.4325 30.5675 16.5741 30.3666 16.6819 30.2192C16.7965 30.0718 16.9246 29.8775 16.9718 29.7837C17.0122 29.6899 17.1537 29.4688 17.2886 29.2812C17.316 29.2425 17.3495 29.1949 17.3873 29.1414C17.526 28.9447 17.7213 28.6678 17.8749 28.4572C18.0704 28.1959 18.4209 27.727 18.6501 27.4188C18.7541 27.2859 18.8555 27.1542 18.9404 27.044C19.0481 26.9042 19.1292 26.7989 19.1556 26.7689C19.1837 26.737 19.2952 26.6008 19.4449 26.4181C19.5468 26.2937 19.6663 26.1477 19.7892 25.9985C20.0857 25.63 20.4025 25.2481 20.4969 25.1544C20.5845 25.0606 20.9957 24.6184 21.4001 24.1695C21.8045 23.7207 22.4313 23.0708 22.7818 22.7224C23.1323 22.3741 23.6783 21.8582 23.995 21.5701C24.3118 21.2754 24.7971 20.8399 25.0735 20.592C25.3498 20.3508 25.8688 19.9087 26.2193 19.6206C26.5698 19.3325 27.3314 18.7429 27.9044 18.3209C28.4773 17.8988 29.4007 17.2557 29.9601 16.8939C30.5128 16.5321 31.0453 16.1837 31.1397 16.1234C31.234 16.0564 31.6924 15.7818 32.1709 15.5071C32.6427 15.2324 33.2628 14.884 33.5526 14.7366C33.8357 14.5826 34.3143 14.3347 34.6109 14.1873C34.6962 14.1468 34.7993 14.0975 34.9111 14.044C35.1877 13.9117 35.5166 13.7544 35.7567 13.6446C35.9455 13.5583 36.1512 13.4615 36.3217 13.3812C36.4556 13.3182 36.5677 13.2654 36.6329 13.236C36.7812 13.1623 36.9227 13.102 36.9564 13.102C36.9834 13.102 37.1789 13.0216 37.3878 12.9278C37.5141 12.8729 37.6589 12.8088 37.7788 12.7557C37.8638 12.718 37.9362 12.6859 37.981 12.6665C38.0888 12.6196 38.2573 12.5593 38.3517 12.5325C38.446 12.5057 38.5539 12.4588 38.5876 12.432C38.6213 12.4052 38.7628 12.3449 38.8909 12.3114C39.0189 12.2712 39.3357 12.164 39.5986 12.0635L39.6473 12.0461C39.8995 11.9561 40.1861 11.8538 40.3063 11.8224C40.4344 11.7889 40.6501 11.7152 40.7781 11.6683C40.9062 11.6214 41.2432 11.5142 41.5196 11.4271L41.5482 11.4188C41.8179 11.3403 42.1231 11.2515 42.2273 11.2127C42.3184 11.1787 42.5203 11.1256 42.7027 11.0776C42.7361 11.0688 42.7689 11.0602 42.8002 11.0519C43.0024 11.005 43.3529 10.9179 43.5753 10.8576C43.6469 10.8382 43.7296 10.8161 43.8152 10.7931C43.9957 10.7448 44.1887 10.693 44.3167 10.6567C44.4987 10.6031 44.802 10.5428 44.9908 10.516C45.1727 10.4892 45.4019 10.4423 45.4963 10.4088C45.5906 10.3753 45.9209 10.3016 46.2377 10.248L46.317 10.2346C46.6462 10.1789 47.1793 10.0887 47.552 10.0269C47.9564 9.95991 48.5226 9.86611 48.799 9.82592L48.8314 9.82198C49.128 9.78601 49.8117 9.7031 50.3829 9.64503ZM51.5287 26.3067C51.7849 26.2665 52.4993 26.2062 53.1127 26.1727C53.2699 26.1658 53.4337 26.1585 53.5948 26.1513C54.0621 26.1305 54.5062 26.1107 54.6966 26.1057C54.9528 26.1057 55.8223 26.1325 56.6176 26.166C57.4129 26.2062 58.2622 26.2732 58.5049 26.3067C58.7475 26.3469 59.2126 26.4206 59.5496 26.4675C59.8866 26.5144 60.3988 26.6014 60.6954 26.6617C60.992 26.722 61.3897 26.8158 61.5716 26.8694C61.7604 26.923 61.9626 26.9699 62.03 26.9699C62.0906 26.9699 62.3198 27.0302 62.5355 27.1039C62.7444 27.1776 62.9803 27.2379 63.0545 27.2379C63.1286 27.2446 63.3106 27.2982 63.4589 27.3719C63.6072 27.4456 63.7892 27.5059 63.8633 27.5059C63.9375 27.5059 64.1194 27.5662 64.2677 27.6399C64.416 27.7136 64.598 27.7672 64.6721 27.7739C64.7463 27.7739 64.8676 27.8141 64.9417 27.861C65.0159 27.9145 65.1642 27.9748 65.2787 28.0016C65.3933 28.0284 65.6158 28.1088 65.7843 28.1892C65.8224 28.2059 65.8643 28.2243 65.9078 28.2434C66.0567 28.3087 66.2244 28.3822 66.3235 28.4237C66.4515 28.484 66.6807 28.5845 66.829 28.6448C66.9773 28.7118 67.3952 28.9128 67.7524 29.0937C68.1164 29.2678 68.4938 29.4621 68.5949 29.5157C68.6279 29.5342 68.6799 29.5633 68.744 29.5993C68.8894 29.6808 69.0974 29.7974 69.2892 29.9043C69.4733 30.0114 69.6753 30.1304 69.8236 30.2178C69.8979 30.2615 69.9586 30.2973 69.9969 30.3197C70.1115 30.3934 70.2867 30.5006 70.4013 30.5608C70.5159 30.6278 70.745 30.7752 70.927 30.9025C70.9871 30.9438 71.0597 30.9945 71.1366 31.0482C71.2843 31.1513 71.4477 31.2654 71.5674 31.3447C71.7426 31.472 72.0796 31.7199 72.3223 31.9007C72.5649 32.0816 73.0502 32.4702 73.4007 32.7583C73.7512 33.0531 74.3376 33.5622 74.7015 33.8972C75.0655 34.2322 75.7126 34.882 76.1305 35.3443C76.5484 35.8066 77.0404 36.3626 77.2224 36.5837C77.3976 36.8115 77.5863 37.0326 77.6335 37.0862C77.6702 37.1279 77.7559 37.2385 77.8461 37.355C77.8718 37.3882 77.8979 37.4219 77.9234 37.4546C78.0379 37.602 78.2401 37.8901 78.3749 38.0911C78.5098 38.2921 78.7187 38.5801 78.84 38.7275C78.9613 38.8749 79.0624 39.0357 79.0624 39.0826C79.0624 39.1228 79.1029 39.2032 79.1501 39.2501C79.1905 39.2903 79.3051 39.4511 79.3995 39.5985C79.4938 39.7459 79.6084 39.9267 79.6488 40.0004C79.6893 40.0741 79.8578 40.3622 80.0263 40.6369C80.1881 40.9116 80.5655 41.6351 80.8688 42.2448C81.1721 42.8544 81.4148 43.3971 81.4215 43.4507C81.4215 43.5043 81.4485 43.5847 81.4822 43.6182C81.5159 43.6517 81.6237 43.8928 81.7181 44.1541C81.8192 44.4154 81.9607 44.7839 82.0281 44.9782C82.0843 45.1202 82.1674 45.339 82.2367 45.5212C82.2589 45.5797 82.2797 45.6344 82.2977 45.6816C82.3719 45.8692 82.4325 46.0836 82.4325 46.1506C82.4325 46.2109 82.4662 46.3315 82.5134 46.4185C82.5539 46.4989 82.6482 46.7937 82.7156 47.0684C82.7699 47.2693 82.8457 47.5741 82.9115 47.8386C82.9357 47.9358 82.9586 48.0276 82.9785 48.1068C83.0459 48.4016 83.147 48.884 83.2009 49.1787C83.2549 49.4735 83.329 49.8822 83.3694 50.0832C83.4099 50.2842 83.4908 50.8268 83.5582 51.2891C83.6525 51.9322 83.6795 52.6826 83.6997 54.5383C83.7132 56.4678 83.6997 57.0573 83.6188 57.4861C83.5649 57.7809 83.4975 58.2499 83.4773 58.5245C83.4571 58.7992 83.3964 59.2347 83.3425 59.496C83.3292 59.5602 83.3139 59.635 83.2975 59.7153C83.2471 59.9617 83.186 60.2602 83.1403 60.4674C83.0863 60.7421 82.9987 61.1507 82.9448 61.3718C82.8909 61.5929 82.783 62.0016 82.7022 62.2762C82.628 62.5509 82.5202 62.9328 82.4662 63.1137C82.4123 63.3013 82.3247 63.6027 82.2573 63.7836C82.1966 63.9712 82.109 64.2057 82.0618 64.3196C82.0147 64.4335 81.8462 64.8556 81.6911 65.2575C81.5294 65.6595 81.3137 66.1888 81.2058 66.4299C81.1144 66.6344 80.9212 67.0316 80.7495 67.3845C80.7187 67.4479 80.6886 67.5097 80.6599 67.5688C80.4644 67.9507 80.2352 68.346 80.1476 68.4398C79.9993 68.6006 79.9859 68.6006 79.9117 68.48C79.8713 68.413 79.7297 68.2187 79.6017 68.0445C79.4669 67.877 79.2916 67.6157 79.204 67.4684C79.1164 67.321 79.0085 67.1669 78.9681 67.1334C78.9209 67.0999 78.658 66.718 78.3749 66.2959C78.0919 65.8739 77.7009 65.3111 77.5189 65.0565C77.3302 64.802 76.9191 64.2124 76.609 63.7501C76.2922 63.2879 75.908 62.7318 75.753 62.5107C75.598 62.2896 75.3958 62.0284 75.3149 61.9279C75.2273 61.8207 75.1531 61.7068 75.1531 61.6733C75.1531 61.6398 75.052 61.479 74.9374 61.3249C74.8161 61.1708 74.6544 60.9497 74.5735 60.8359C74.4993 60.7287 74.2567 60.3803 74.041 60.0654C73.8253 59.7505 73.495 59.2883 73.2996 59.027C73.1109 58.7657 72.821 58.4039 72.6525 58.2164C72.6271 58.1869 72.5994 58.1548 72.5701 58.1209C72.413 57.939 72.2113 57.7056 72.0863 57.5531C71.9381 57.3789 71.5674 56.9903 71.2708 56.6889C70.9675 56.3941 70.5091 55.9653 70.2598 55.7442C70.0036 55.5165 69.5655 55.1547 69.2892 54.9336C69.0128 54.7058 68.6488 54.4311 68.4803 54.3106C68.4201 54.2698 68.3366 54.2137 68.2425 54.1504C68.0733 54.0367 67.8698 53.8999 67.7052 53.788C67.4491 53.6205 67.1525 53.4262 67.0514 53.3592C66.9436 53.2855 66.8492 53.2319 66.829 53.2319C66.8088 53.2319 66.6807 53.1515 66.5459 53.0577C66.4044 52.964 65.7438 52.6223 65.0765 52.294C64.4093 51.9657 63.8229 51.691 63.7824 51.691C63.7352 51.691 63.5802 51.6308 63.4454 51.5571C63.3039 51.4834 63.1421 51.4231 63.0882 51.4231C63.0343 51.4231 62.9129 51.3829 62.8186 51.336C62.7242 51.2891 62.3805 51.1685 62.0435 51.068C61.7064 50.9675 61.3492 50.8536 61.2346 50.8134C61.12 50.7732 60.8504 50.6995 60.628 50.6459C60.4056 50.5923 59.981 50.5052 59.6844 50.4516C59.6162 50.4378 59.5405 50.4225 59.4615 50.4065C59.1967 50.3531 58.8939 50.2919 58.7071 50.2507C58.4644 50.1971 58.0263 50.1368 57.7297 50.1167C57.5978 50.1047 57.3777 50.0875 57.1201 50.0673C56.7987 50.0422 56.4188 50.0124 56.0784 49.9827C55.1617 49.909 54.7775 49.909 53.8878 49.9827C53.5404 50.0141 53.1467 50.0455 52.8206 50.0715C52.5899 50.0899 52.393 50.1056 52.2702 50.1167C51.9736 50.1368 51.5355 50.1971 51.2928 50.2507C51.106 50.2919 50.8032 50.3531 50.5384 50.4065C50.4593 50.4225 50.3837 50.4378 50.3155 50.4516C50.0189 50.5052 49.5943 50.5923 49.3719 50.6459C49.1495 50.6995 48.8799 50.7732 48.7653 50.8134C48.6507 50.8536 48.2935 50.9675 47.9564 51.068C47.6194 51.1685 47.2757 51.2891 47.1813 51.336C47.087 51.3829 46.9656 51.4231 46.9117 51.4231C46.8578 51.4231 46.696 51.4834 46.5612 51.5571C46.4197 51.6308 46.2647 51.691 46.2242 51.691C46.177 51.691 45.5906 51.9657 44.9234 52.294C44.2561 52.6223 43.5955 52.964 43.4607 53.0577C43.3192 53.1515 43.1911 53.2319 43.1709 53.2319C43.1507 53.2319 43.0563 53.2855 42.9552 53.3592C42.9049 53.3905 42.815 53.4494 42.7068 53.5204C42.5829 53.6016 42.4349 53.6986 42.2947 53.788C42.095 53.9203 41.8485 54.0875 41.6678 54.2101C41.6106 54.2489 41.56 54.2832 41.5196 54.3106C41.3511 54.4311 40.9871 54.7058 40.7107 54.9336C40.4344 55.1547 39.9963 55.5165 39.7401 55.7442C39.484 55.9653 38.9987 56.4276 38.6617 56.776C38.3247 57.1243 37.9877 57.4727 37.9136 57.5464C37.8394 57.6268 37.7316 57.7541 37.6776 57.8278C37.6237 57.9082 37.4283 58.1427 37.2395 58.357C37.0575 58.5647 36.7879 58.893 36.6531 59.0806C36.6007 59.1562 36.5258 59.2622 36.4419 59.3809C36.3103 59.5673 36.1566 59.7848 36.033 59.9649C35.8241 60.2597 35.5747 60.6215 35.4736 60.7689C35.3912 60.8945 35.2504 61.0826 35.1392 61.2312C35.114 61.2649 35.0903 61.2965 35.0692 61.3249C34.9479 61.479 34.8468 61.6398 34.8468 61.6733C34.8468 61.7068 34.7726 61.8207 34.685 61.9279C34.6041 62.0284 34.4019 62.2896 34.2469 62.5107C34.0919 62.7318 33.7077 63.2879 33.3909 63.7501C33.1464 64.1146 32.8434 64.5456 32.6435 64.8299C32.5898 64.9063 32.5436 64.972 32.5079 65.023C32.3327 65.2642 31.9148 65.8672 31.5778 66.3629L31.449 66.5524C31.1558 66.9837 30.8791 67.3908 30.8026 67.5018C30.7662 67.5511 30.7166 67.6173 30.6621 67.6901C30.5756 67.8056 30.4768 67.9377 30.3982 68.0445C30.2702 68.212 30.1286 68.413 30.0882 68.48C30.014 68.6006 30.0006 68.6006 29.8523 68.4398C29.7647 68.346 29.5355 67.9507 29.34 67.5688C29.1513 67.1803 28.9221 66.6979 28.8278 66.4969C28.7334 66.2959 28.5784 65.9342 28.4773 65.693C28.4072 65.5138 28.3221 65.3123 28.2637 65.174C28.2435 65.1261 28.2265 65.0858 28.2144 65.0565C28.1605 64.9426 28.0594 64.6881 27.992 64.4871C27.9476 64.3667 27.8911 64.2056 27.8385 64.0554C27.8032 63.9547 27.7696 63.8589 27.7426 63.7836C27.6819 63.6027 27.5876 63.3013 27.5336 63.1137C27.4797 62.9328 27.3719 62.5509 27.2977 62.2762C27.2169 62.0016 27.109 61.5929 27.0551 61.3718C27.0012 61.1507 26.9135 60.7421 26.8596 60.4674C26.799 60.1927 26.7113 59.7572 26.6642 59.496C26.6102 59.2347 26.5159 58.6183 26.4485 58.1226C26.3474 57.3923 26.3272 56.7291 26.3204 54.7058C26.3204 52.6625 26.3406 52.0327 26.4417 51.3226C26.5091 50.8469 26.59 50.2842 26.6305 50.0832C26.666 49.9065 26.7276 49.5695 26.7786 49.2903C26.7856 49.2518 26.7924 49.2144 26.799 49.1787C26.8529 48.884 26.954 48.4016 27.0214 48.1068C27.0413 48.0276 27.0642 47.9358 27.0884 47.8386C27.1542 47.574 27.23 47.2693 27.2843 47.0684C27.3517 46.7937 27.446 46.4989 27.4865 46.4185C27.5336 46.3315 27.5673 46.2109 27.5673 46.1506C27.5673 46.0836 27.628 45.8692 27.7022 45.6816C27.7201 45.6345 27.7409 45.5799 27.7631 45.5216C27.8324 45.3393 27.9156 45.1203 27.9718 44.9782C28.0392 44.7839 28.1807 44.4154 28.2818 44.1541C28.3762 43.8928 28.484 43.6517 28.5177 43.6182C28.5514 43.5847 28.5784 43.5043 28.5784 43.4507C28.5851 43.3971 28.8278 42.8544 29.1311 42.2448C29.4344 41.6351 29.8118 40.9116 29.9736 40.6369C30.1421 40.3622 30.3106 40.0741 30.3511 40.0004C30.3915 39.9267 30.5061 39.7459 30.6004 39.5985C30.6948 39.4511 30.8094 39.2903 30.8566 39.2501C30.897 39.2032 30.9374 39.1228 30.9374 39.0826C30.9374 39.0357 31.0386 38.8749 31.1599 38.7275C31.2812 38.5801 31.4699 38.3256 31.5778 38.1581C31.6923 37.9906 31.8946 37.7092 32.0361 37.5216C32.1709 37.3407 32.3259 37.1398 32.3731 37.0862C32.3874 37.0672 32.4203 37.0272 32.4646 36.9734C32.5455 36.8752 32.6643 36.7309 32.7775 36.5837C32.9595 36.3626 33.4515 35.8066 33.8694 35.3443C34.2873 34.882 34.9344 34.2322 35.2984 33.8972C35.6623 33.5622 36.2487 33.0531 36.5992 32.7583C36.9497 32.4702 37.435 32.0816 37.6776 31.9007C37.9203 31.7199 38.2573 31.472 38.4393 31.3447C38.4993 31.3034 38.5719 31.2527 38.6488 31.199C38.7965 31.0959 38.9599 30.9818 39.0796 30.9025C39.2549 30.7752 39.4908 30.6278 39.5986 30.5608C39.7064 30.5006 39.8952 30.3934 40.003 30.3197C40.0983 30.2605 40.3619 30.1072 40.6126 29.9613C40.6457 29.9421 40.6785 29.923 40.7107 29.9043C40.9026 29.7973 41.1107 29.6807 41.2561 29.5991C41.3201 29.5632 41.372 29.5342 41.405 29.5157C41.5061 29.4621 41.8835 29.2678 42.2475 29.0937C42.6047 28.9128 43.0226 28.7118 43.1709 28.6448C43.3192 28.5845 43.5484 28.484 43.6764 28.4237C43.7755 28.3822 43.9431 28.3087 44.092 28.2434C44.1355 28.2243 44.1775 28.2059 44.2156 28.1892C44.3841 28.1088 44.6133 28.0284 44.7211 28.0016C44.829 27.9748 44.984 27.9145 45.0582 27.861C45.1323 27.8141 45.2536 27.7739 45.3278 27.7739C45.4019 27.7672 45.5839 27.7136 45.7322 27.6399C45.8805 27.5662 46.0625 27.5059 46.1366 27.5059C46.2107 27.5059 46.3927 27.4456 46.541 27.3719C46.6893 27.2982 46.8713 27.2446 46.9454 27.2379C47.0196 27.2379 47.2555 27.1776 47.4711 27.1039C47.6801 27.0302 47.9093 26.9699 47.9767 26.9699C48.0373 26.9699 48.2463 26.923 48.4283 26.8694C48.617 26.8158 49.0079 26.722 49.3045 26.6617C49.6011 26.6014 50.1133 26.5144 50.4503 26.4675C50.7873 26.4206 51.2726 26.3469 51.5287 26.3067Z"
fill="#3C49EC" />
<path
d="M180.474 32H189.762V75H180.474V68.808C177.206 73.366 172.132 76.118 165.424 76.118C153.728 76.118 144.01 66.228 144.01 53.5C144.01 40.686 153.728 30.882 165.424 30.882C172.132 30.882 177.206 33.634 180.474 38.106V32ZM166.886 67.26C174.626 67.26 180.474 61.498 180.474 53.5C180.474 45.502 174.626 39.74 166.886 39.74C159.146 39.74 153.298 45.502 153.298 53.5C153.298 61.498 159.146 67.26 166.886 67.26ZM197.148 75V12.22H206.436V75H197.148ZM238.118 30.882C249.814 30.882 259.532 40.772 259.532 53.5C259.532 66.314 249.814 76.118 238.118 76.118C231.41 76.118 226.336 73.366 223.068 68.894V92.2H213.78V32H223.068V38.192C226.336 33.634 231.41 30.882 238.118 30.882ZM236.656 67.26C244.396 67.26 250.244 61.498 250.244 53.5C250.244 45.502 244.396 39.74 236.656 39.74C228.916 39.74 223.068 45.502 223.068 53.5C223.068 61.498 228.916 67.26 236.656 67.26ZM269.154 25.55C265.886 25.55 263.22 22.798 263.22 19.616C263.22 16.348 265.886 13.682 269.154 13.682C272.422 13.682 275.088 16.348 275.088 19.616C275.088 22.798 272.422 25.55 269.154 25.55ZM264.51 75V32H273.798V75H264.51ZM303.76 30.882C313.392 30.882 320.272 37.418 320.272 48.598V75H310.984V49.544C310.984 43.008 307.2 39.568 301.352 39.568C295.246 39.568 290.43 43.18 290.43 51.952V75H281.142V32H290.43V37.504C293.268 33.032 297.912 30.882 303.76 30.882ZM360.889 32H370.177V75H360.889V68.808C357.621 73.366 352.547 76.118 345.839 76.118C334.143 76.118 324.425 66.228 324.425 53.5C324.425 40.686 334.143 30.882 345.839 30.882C352.547 30.882 357.621 33.634 360.889 38.106V32ZM347.301 67.26C355.041 67.26 360.889 61.498 360.889 53.5C360.889 45.502 355.041 39.74 347.301 39.74C339.561 39.74 333.713 45.502 333.713 53.5C333.713 61.498 339.561 67.26 347.301 67.26Z"
fill="#fff" />
<path
d="M419.617 40.944H408.953V61.584C408.953 67.088 412.565 67.002 419.617 66.658V75C405.341 76.72 399.665 72.764 399.665 61.584V40.944H391.753V32H399.665V22.712L408.953 19.96V32H419.617V40.944ZM430.147 57.456C431.609 64.164 437.027 67.604 443.907 67.604C449.067 67.604 452.937 65.282 455.001 62.272L462.655 66.744C458.699 72.592 452.249 76.118 443.821 76.118C429.631 76.118 420.429 66.4 420.429 53.5C420.429 40.772 429.631 30.882 443.133 30.882C455.947 30.882 464.719 41.202 464.719 53.586C464.719 54.876 464.547 56.252 464.375 57.456H430.147ZM430.061 49.888H455.345C454.055 42.492 448.637 39.31 443.047 39.31C436.081 39.31 431.351 43.438 430.061 49.888ZM489.496 76.118C476.51 76.118 466.792 66.228 466.792 53.5C466.792 40.686 476.51 30.882 489.496 30.882C497.924 30.882 505.234 35.268 508.674 41.976L500.676 46.62C498.784 42.578 494.57 39.998 489.41 39.998C481.842 39.998 476.08 45.76 476.08 53.5C476.08 61.24 481.842 67.002 489.41 67.002C494.57 67.002 498.784 64.336 500.848 60.38L508.846 64.938C505.234 71.732 497.924 76.118 489.496 76.118ZM534.738 30.882C544.37 30.882 551.25 37.418 551.25 48.598V75H541.962V49.544C541.962 43.008 538.178 39.568 532.33 39.568C526.224 39.568 521.408 43.18 521.408 51.952V75H512.12V14.8H521.408V37.504C524.246 33.032 528.89 30.882 534.738 30.882Z"
fill="#fff" />
</svg>
